<?xml version="1.0" standalone="no"?>
<!DOCTYPE svg PUBLIC "-//W3C//DTD SVG 20010904//EN"
 "http://www.w3.org/TR/2001/REC-SVG-20010904/DTD/svg10.dtd">
<svg version="1.0" xmlns="http://www.w3.org/2000/svg"
 width="1151.000000pt" height="1280.000000pt" viewBox="0 0 1151.000000 1280.000000"
 preserveAspectRatio="xMidYMid meet">
<metadata>
Created by potrace 1.15, written by Peter Selinger 2001-2017
</metadata>
<g transform="translate(0.000000,1280.000000) scale(0.100000,-0.100000)"
fill="#4caf50" stroke="none">
<path d="M4667 12785 c-445 -56 -828 -228 -1102 -494 -71 -70 -82 -104 -45
-141 38 -38 68 -26 165 60 85 75 134 107 88 58 -60 -66 -175 -271 -263 -468
l-42 -95 -124 -100 c-68 -55 -124 -104 -124 -110 1 -5 20 -32 43 -58 l43 -48
27 21 c15 12 27 20 27 17 0 -2 -25 -71 -56 -153 -160 -431 -317 -1106 -458
-1979 -20 -121 -39 -236 -42 -255 -3 -19 -22 -73 -42 -119 l-37 -83 -135 -2
c-123 -2 -143 -5 -230 -35 -52 -18 -131 -52 -175 -75 -44 -24 -104 -48 -133
-55 -174 -37 -323 -179 -440 -420 -31 -64 -81 -154 -111 -201 -173 -264 -316
-642 -395 -1040 -108 -544 -124 -1037 -45 -1449 45 -235 135 -536 195 -651 80
-154 204 -279 317 -320 34 -12 173 -79 309 -148 l246 -125 31 22 c38 28 38 65
4 -335 -33 -404 -38 -771 -10 -878 38 -149 107 -248 265 -379 318 -263 680
-387 1233 -423 l97 -6 60 -101 c33 -56 119 -221 191 -367 l131 -265 193 7
c105 3 194 5 195 3 7 -6 -146 -87 -423 -224 -290 -143 -458 -223 -970 -456
-430 -196 -715 -338 -748 -373 -22 -23 -39 -67 -76 -193 l-48 -164 -1094 -5
c-602 -3 -1102 -9 -1112 -14 -22 -10 -47 -57 -47 -86 0 -12 13 -35 29 -51 l30
-29 1162 2 1163 3 61 208 60 207 45 27 c43 26 401 195 725 343 844 385 1258
592 1508 756 l97 64 412 15 c227 8 414 12 416 10 7 -7 -55 -80 -118 -139 -186
-172 -1059 -498 -2330 -870 -124 -37 -230 -68 -236 -70 -8 -3 -6 -27 7 -81 10
-43 21 -80 24 -83 3 -4 95 8 203 26 220 37 233 37 315 18 144 -34 170 -148 81
-347 -19 -42 -34 -79 -34 -83 0 -3 559 -5 1242 -4 l1242 3 313 1540 c172 847
313 1545 313 1552 0 15 -105 67 -169 84 -28 7 -51 17 -51 22 0 5 29 163 65
351 58 306 125 673 125 682 0 19 184 -28 322 -81 175 -68 315 -170 371 -273
66 -121 56 -292 -39 -681 -122 -501 -486 -1492 -881 -2406 -74 -170 -137 -318
-140 -327 -4 -15 6 -13 68 12 120 50 359 128 444 145 44 9 119 17 166 18 140
1 196 -40 206 -150 7 -81 -18 -193 -72 -316 l-43 -97 2173 0 c1195 0 2181 3
2190 6 19 8 45 55 45 84 0 12 -13 35 -29 51 l-29 29 -2046 0 -2045 0 9 30 c54
187 21 366 -84 456 -72 62 -132 79 -286 78 -113 0 -152 -4 -239 -27 -58 -15
-105 -26 -106 -24 -1 1 60 151 135 332 354 853 617 1594 739 2080 73 292 98
542 68 662 -77 299 -385 495 -937 597 -426 78 -1033 86 -1638 20 -84 -9 -155
-15 -157 -12 -2 2 0 33 5 68 5 36 18 159 30 273 28 279 65 424 177 687 25 57
60 134 78 171 l34 66 143 6 c494 20 948 309 1368 872 l82 110 106 6 c137 8
239 36 377 104 281 138 528 404 729 787 128 242 265 616 348 946 l43 172 281
0 280 0 23 -41 c42 -74 138 -166 209 -201 l67 -33 457 -3 458 -3 26 26 c21 21
25 33 22 68 l-3 42 57 7 c160 20 311 155 423 379 266 533 221 1379 -97 1801
-127 167 -296 250 -441 217 -48 -11 -797 -30 -797 -20 0 2 15 22 34 45 l33 41
5 233 4 232 -305 0 -306 0 -182 -166 -183 -167 0 -84 0 -85 -37 24 c-35 21
-49 23 -173 23 -122 0 -140 -2 -183 -24 -27 -13 -61 -40 -76 -62 -25 -34 -34
-59 -59 -163 -6 -25 -15 -32 -53 -42 -71 -17 -137 -54 -195 -107 -128 -117
-200 -293 -238 -586 -13 -98 -18 -115 -38 -129 -13 -8 -55 -47 -94 -86 -91
-92 -154 -214 -188 -365 l-23 -105 -51 -33 c-90 -57 -148 -171 -172 -340 -21
-145 21 -343 110 -516 22 -44 40 -85 40 -93 0 -46 -124 -370 -211 -554 -54
-112 -185 -350 -194 -350 -5 0 -647 319 -652 324 -3 3 16 58 42 122 26 65 76
206 113 313 36 108 74 204 84 214 13 13 18 31 17 60 -1 25 23 130 59 262 54
195 124 478 164 665 l14 65 80 8 c440 42 785 317 836 666 37 249 -112 474
-321 488 -88 7 -168 -15 -310 -83 l-113 -54 6 43 c34 240 44 818 17 992 -37
246 -113 400 -275 560 -205 202 -515 344 -948 434 -131 27 -132 28 -84 34 27
4 166 7 309 7 143 0 258 2 255 5 -11 12 -548 147 -638 161 -134 21 -468 27
-603 9z m286 -141 c-26 -11 -59 -12 -155 -6 -120 7 -121 7 -53 13 39 3 108 6
155 6 81 1 84 1 53 -13z m-398 -193 c-184 -100 -488 -297 -721 -467 -62 -46
-114 -81 -114 -78 0 2 13 31 29 62 95 189 257 368 392 435 107 52 255 83 414
86 l70 1 -70 -39z m545 24 c727 -81 1204 -328 1356 -703 96 -238 99 -801 8
-1384 -5 -28 -1 -41 15 -57 32 -32 59 -26 156 40 108 73 229 133 310 154 102
26 138 19 203 -40 76 -68 106 -188 78 -308 -63 -271 -329 -468 -688 -512 -49
-6 -61 -4 -84 14 -34 27 -54 27 -89 -1 -25 -19 -38 -22 -115 -19 -85 3 -88 2
-109 -25 -16 -20 -20 -36 -16 -54 10 -42 31 -54 105 -61 39 -3 73 -8 75 -11
12 -12 -210 -896 -230 -916 -6 -7 -170 30 -245 55 -204 68 -354 188 -426 340
-49 104 -82 122 -136 75 -35 -30 -16 -106 54 -219 75 -120 221 -234 385 -302
72 -29 259 -81 294 -81 10 0 21 -5 24 -10 14 -22 -156 -493 -233 -647 -50 -99
-92 -136 -187 -165 -89 -28 -258 -30 -388 -4 -234 45 -528 175 -900 398 -133
80 -223 139 -584 385 -138 95 -385 281 -605 457 -137 109 -177 146 -178 164 0
29 80 507 126 752 95 505 187 898 278 1192 73 236 212 590 240 615 74 64 402
247 578 322 105 45 310 121 326 121 4 0 -35 -27 -87 -60 -203 -132 -390 -291
-569 -484 -57 -62 -400 -492 -427 -536 -5 -8 9 -1 30 16 569 441 593 458 850
584 243 120 565 227 769 256 54 7 96 39 96 72 0 11 -10 32 -22 47 -20 26 -25
27 -80 21 -144 -15 -510 -121 -675 -196 -36 -17 -68 -28 -70 -26 -5 5 158 118
244 170 144 86 364 177 498 206 49 11 575 90 597 90 6 0 9 2 6 5 -3 3 -124 22
-269 41 -226 30 -281 34 -382 29 -195 -10 -438 -58 -647 -130 -41 -14 -70 -21
-65 -16 48 47 622 361 659 361 6 0 72 -7 146 -15z m3940 -1164 c0 -5 -21 -29
-46 -53 -25 -23 -50 -52 -54 -63 -7 -15 -9 -11 -9 21 -1 23 -4 56 -7 73 l-6
31 61 0 c33 0 61 -4 61 -9z m-251 -252 l1 -56 175 -5 c96 -2 177 -7 181 -10 3
-4 -13 -37 -35 -73 -22 -37 -45 -83 -51 -101 l-12 -34 -214 0 -214 0 0 151 0
152 78 72 77 73 6 -57 c4 -31 7 -81 8 -112z m-447 -160 c21 -11 48 -66 48 -99
0 -19 -6 -20 -160 -20 -154 0 -160 1 -160 20 0 45 28 89 62 99 46 13 185 13
210 0z m1991 -101 c110 -58 219 -218 291 -426 44 -127 45 -146 3 -66 -136 260
-350 330 -523 171 -143 -130 -226 -350 -240 -637 -19 -377 106 -714 308 -825
46 -26 63 -30 128 -30 61 0 84 5 126 27 65 34 151 127 194 211 19 36 36 64 38
63 6 -6 -51 -171 -83 -241 -65 -143 -166 -264 -259 -310 -58 -29 -146 -34
-202 -10 -181 75 -331 346 -395 710 -18 107 -23 167 -23 335 0 168 5 228 23
335 50 287 173 557 296 651 29 22 42 24 137 24 76 0 109 4 124 15 23 18 30 18
57 3z m-503 -24 c0 -4 -20 -37 -45 -74 -176 -265 -264 -712 -225 -1135 43
-456 204 -793 456 -952 26 -16 -672 -18 -730 -2 -23 6 -60 30 -89 58 l-50 48
23 31 c18 24 21 38 16 66 -8 41 -36 64 -89 73 -21 3 -42 13 -47 24 -6 10 -24
71 -41 136 -25 98 -29 129 -23 180 5 51 3 68 -11 89 -45 70 -42 582 5 739 4
17 14 59 20 95 16 90 63 228 112 326 75 152 182 267 272 293 34 10 446 15 446
5z m-1800 -231 c-105 -158 -170 -460 -170 -790 0 -49 -4 -83 -10 -83 -5 0 -10
22 -10 50 0 38 -5 54 -22 69 -30 29 -84 44 -129 37 -37 -6 -38 -5 -45 29 -3
19 -15 47 -27 61 -20 26 -20 28 -4 143 31 218 79 350 158 436 66 71 138 102
246 104 l51 1 -38 -57z m510 47 c79 5 430 10 430 7 0 -2 -14 -35 -32 -73 -17
-38 -50 -127 -73 -199 l-43 -130 -96 -3 -97 -3 -38 -38 c-83 -83 -130 -235
-138 -451 -10 -264 37 -428 142 -499 30 -20 53 -26 122 -29 50 -3 86 -9 88
-16 2 -6 15 -63 30 -126 15 -63 29 -121 32 -127 4 -10 -45 -13 -225 -13 -215
0 -230 1 -247 20 -24 26 -47 33 -77 21 -20 -8 -35 -4 -75 19 -88 51 -161 150
-196 267 -9 28 -20 60 -25 70 -6 11 -6 40 -1 73 5 30 13 190 18 355 14 439 52
623 159 763 58 77 174 127 267 116 28 -3 61 -5 75 -4z m1814 -184 c86 -36 167
-170 213 -353 25 -98 27 -125 27 -288 -1 -162 -4 -190 -28 -280 -34 -130 -83
-232 -141 -294 -81 -87 -149 -91 -234 -15 -132 119 -212 433 -183 717 21 198
80 362 165 454 64 70 115 87 181 59z m-1571 -458 c-5 -40 -8 -191 -8 -336 l0
-262 -46 0 c-43 0 -48 3 -62 33 -29 59 -39 130 -39 262 0 171 28 304 74 363 6
6 28 12 49 12 l39 0 -7 -72z m-1352 -309 c-37 -113 -86 -356 -101 -498 -15
-155 -21 -141 60 -141 81 0 73 -14 90 155 15 146 32 224 69 321 30 77 102 194
121 194 4 0 0 -22 -10 -49 -40 -104 -80 -386 -80 -561 0 -99 -9 -91 82 -69 48
12 64 41 88 167 27 142 107 341 131 326 13 -8 7 -66 -26 -259 -48 -273 -118
-523 -175 -623 -50 -85 -142 -140 -221 -129 l-39 5 -20 -71 c-48 -166 -136
-424 -205 -597 -376 -949 -866 -1593 -1400 -1840 -177 -82 -349 -120 -547
-120 -581 0 -1147 267 -1662 783 l-138 140 6 39 c34 211 258 337 601 338 l120
0 98 -105 c236 -251 487 -393 812 -457 158 -31 426 -31 572 0 191 41 361 114
511 218 35 24 74 44 88 44 27 0 74 40 74 63 0 7 44 58 98 113 276 282 527 717
683 1184 22 63 46 127 54 142 8 14 15 50 15 81 0 57 -12 80 -49 92 -23 7 -74
123 -103 230 -23 87 -25 228 -3 310 21 79 26 81 19 8 -8 -69 -7 -70 81 -75
l50 -2 8 49 c4 28 24 140 43 250 47 260 78 344 163 438 34 38 35 38 54 19 19
-19 19 -21 -12 -113z m569 -710 c0 -6 -46 -29 -59 -29 -5 0 -4 20 2 45 l11 46
22 -28 c13 -15 23 -31 24 -34z m-5000 -135 c52 -42 139 -111 194 -153 l99 -76
-104 -7 c-141 -8 -294 -49 -410 -109 -44 -22 -45 -22 -29 62 9 51 138 359 149
359 3 0 49 -34 101 -76z m4847 -216 c-133 -397 -299 -719 -480 -929 -36 -41
-82 -88 -102 -103 l-36 -28 16 39 c65 151 172 437 221 590 l59 183 50 14 c56
17 126 60 167 103 42 44 96 141 120 216 12 38 24 64 26 58 2 -5 -17 -70 -41
-143z m389 115 c-2 -10 -21 -81 -41 -158 -46 -181 -140 -460 -205 -617 -237
-563 -547 -919 -905 -1036 -87 -29 -205 -50 -205 -37 0 4 21 41 47 83 25 42
79 139 118 215 l73 139 76 42 c308 168 586 598 791 1223 25 76 47 144 50 151
3 8 34 12 105 12 92 0 101 -2 96 -17z m-5591 -2 c10 -17 -9 -20 -30 -5 -18 14
-18 14 2 14 12 0 24 -4 28 -9z m-190 -21 c-3 -5 -16 -10 -28 -10 -18 0 -19 2
-7 10 20 13 43 13 35 0z m990 -285 c233 -69 388 -193 484 -389 43 -86 115
-290 109 -308 -2 -5 -14 21 -27 59 -119 346 -402 587 -691 587 -105 0 -172
-16 -277 -64 -95 -44 -158 -99 -211 -184 -37 -57 -91 -178 -93 -208 -1 -7 -5
5 -10 27 -4 22 -8 111 -8 197 l-1 157 44 26 c71 42 214 96 306 116 116 26 253
20 375 -16z m7 -213 c87 -29 147 -69 228 -152 76 -77 141 -178 182 -281 70
-175 106 -254 154 -340 30 -54 54 -99 54 -102 0 -2 -51 -7 -112 -10 -346 -17
-588 -185 -644 -446 -22 -105 -21 -108 61 -209 41 -51 75 -94 75 -96 0 -2 -22
2 -49 9 -241 63 -469 372 -546 737 -58 275 0 623 130 775 44 51 87 78 173 109
86 30 213 33 294 6z m745 -233 c258 -161 586 -323 798 -394 213 -72 466 -92
625 -51 30 8 57 13 58 11 4 -3 -38 -140 -200 -649 l-50 -158 -116 7 c-343 20
-619 134 -853 353 -47 44 -112 113 -144 152 l-58 70 -19 133 c-22 158 -75 381
-117 497 -17 46 -31 85 -31 87 0 7 14 0 107 -58z m2333 -570 c0 -21 -200 -251
-270 -309 l-48 -41 -234 97 c-128 54 -234 98 -235 99 -2 1 4 21 12 46 7 24 41
130 75 236 l61 191 319 -156 c176 -87 320 -160 320 -163z m-610 -381 c80 -33
148 -63 153 -67 10 -10 -129 -88 -229 -128 -92 -37 -242 -78 -251 -69 -4 3 15
75 42 159 69 221 58 200 102 181 21 -8 103 -43 183 -76z m-3008 -215 c65 -100
149 -194 220 -248 70 -53 183 -109 241 -120 20 -4 37 -12 37 -17 0 -18 -117
-255 -175 -355 -77 -130 -209 -324 -308 -451 -44 -56 -81 -101 -82 -100 -2 2
0 66 4 143 12 264 -13 475 -70 587 -15 28 -22 58 -20 87 1 29 -3 49 -15 62
-15 17 -16 36 -10 182 3 89 13 236 21 327 8 91 15 167 15 170 0 3 22 -41 49
-97 27 -56 69 -133 93 -170z m754 -434 c32 -29 60 -57 62 -63 5 -24 -404 -550
-623 -801 -131 -150 -367 -406 -371 -402 -2 2 6 27 17 57 14 36 47 83 105 149
289 323 534 695 664 1005 53 127 60 130 146 55z m332 -230 c163 -109 411 -232
577 -288 117 -39 297 -82 403 -96 28 -4 52 -9 52 -11 0 -2 -21 -50 -46 -106
-59 -131 -126 -303 -152 -393 -37 -122 -52 -214 -78 -460 -31 -304 -40 -357
-59 -368 -8 -4 -63 -46 -121 -93 -59 -46 -137 -103 -174 -124 -195 -117 -542
-213 -900 -251 -157 -17 -603 -17 -770 0 -133 13 -381 48 -387 55 -3 2 0 64 6
138 6 73 16 194 21 268 l9 135 294 295 c452 455 772 825 1083 1254 55 75 100
136 102 136 1 0 64 -41 140 -91z m2222 -1799 c164 -13 316 -31 330 -40 9 -6 3
-59 -24 -206 -90 -493 -158 -839 -170 -858 -8 -12 -19 -50 -26 -86 -12 -64
-110 -372 -130 -410 -10 -19 -23 -20 -246 -20 -354 0 -567 -18 -1004 -85 -557
-85 -720 -100 -1110 -100 -262 0 -347 4 -440 18 -403 63 -690 189 -922 407
-94 87 -130 145 -154 246 -18 79 -22 261 -10 478 l8 139 47 -6 c25 -4 98 -13
161 -21 204 -27 350 -36 598 -36 412 0 711 42 1037 147 210 67 369 154 529
288 44 36 88 71 99 77 29 15 372 53 647 72 114 7 668 5 780 -4z m310 -1312 c0
-8 -531 -2627 -560 -2766 l-12 -52 -1041 0 -1042 0 3 80 c6 120 -16 179 -95
257 l-62 62 117 36 c220 67 847 277 1007 337 364 136 632 255 775 345 64 41
157 128 206 195 159 215 190 433 99 705 -19 56 -56 149 -83 206 l-50 105 50 4
c28 3 133 3 234 0 217 -6 217 -6 268 97 27 52 111 291 141 398 4 13 45 6 45
-9z m-868 -625 c33 -69 76 -174 96 -232 33 -97 36 -115 36 -223 1 -66 -3 -121
-9 -127 -6 -5 -170 -14 -370 -20 -198 -6 -390 -14 -427 -17 -52 -4 -73 -2 -90
10 -28 20 -77 20 -105 1 -32 -22 -575 -44 -582 -24 -10 30 -193 392 -241 478
-29 51 -50 94 -48 96 2 2 82 8 178 14 96 6 254 20 351 31 165 18 256 31 684
94 199 30 315 43 403 45 l63 1 61 -127z"/>
<path d="M5825 11736 c-166 -80 -312 -233 -401 -420 -33 -68 -35 -77 -22 -103
7 -15 25 -32 40 -37 45 -16 72 5 112 86 77 156 197 281 333 345 40 19 77 41
84 49 20 25 15 75 -10 96 -32 25 -57 23 -136 -16z"/>
<path d="M5754 11146 c-76 -34 -127 -141 -127 -266 0 -101 24 -171 78 -226 89
-89 196 -64 260 61 28 54 30 66 30 164 0 96 -3 111 -28 164 -16 31 -44 69 -63
83 -41 32 -106 40 -150 20z m86 -168 c26 -57 25 -140 0 -197 -17 -36 -23 -41
-35 -31 -39 32 -47 190 -12 243 10 15 20 27 23 27 3 0 14 -19 24 -42z"/>
<path d="M3830 11026 c-135 -36 -252 -185 -294 -373 -19 -87 -21 -250 -2 -318
42 -158 128 -236 258 -234 111 1 177 43 162 103 -11 47 -42 59 -111 45 -77
-16 -107 -7 -137 39 -90 135 -44 440 83 555 74 67 158 69 267 6 61 -35 73 -36
108 -8 34 27 35 72 2 103 -54 49 -187 97 -265 95 -14 0 -46 -6 -71 -13z"/>
<path d="M3843 10798 c-18 -20 -21 -35 -20 -118 0 -106 -18 -165 -67 -209 -49
-45 -24 -131 39 -131 35 0 99 61 130 123 50 103 58 294 14 338 -26 26 -71 24
-96 -3z"/>
<path d="M9629 12126 c-47 -36 -409 -408 -447 -460 -26 -36 -23 -71 10 -98 41
-36 61 -25 190 110 67 70 176 181 241 247 127 129 137 141 137 168 0 24 -44
67 -68 67 -11 0 -39 -15 -63 -34z"/>
<path d="M9810 11604 c-96 -42 -202 -87 -235 -101 -65 -26 -105 -62 -105 -94
0 -25 43 -69 68 -69 30 0 495 206 509 226 22 30 16 70 -13 93 -15 12 -32 21
-38 21 -6 0 -90 -34 -186 -76z"/>
<path d="M9672 11191 c-114 -6 -125 -8 -143 -30 -25 -30 -24 -66 1 -91 19 -19
33 -20 289 -20 256 0 269 1 295 21 32 25 36 77 6 104 -16 15 -42 18 -172 20
-84 1 -209 0 -276 -4z"/>
</g>
</svg>
