<?xml version="1.0" standalone="no"?>
<!DOCTYPE svg PUBLIC "-//W3C//DTD SVG 20010904//EN"
 "http://www.w3.org/TR/2001/REC-SVG-20010904/DTD/svg10.dtd">
<svg version="1.0" xmlns="http://www.w3.org/2000/svg"
 width="1280.000000pt" height="753.000000pt" viewBox="0 0 1280.000000 753.000000"
 preserveAspectRatio="xMidYMid meet">
<metadata>
Created by potrace 1.15, written by Peter Selinger 2001-2017
</metadata>
<g transform="translate(0.000000,753.000000) scale(0.100000,-0.100000)"
fill="#4caf50" stroke="none">
<path d="M10241 7468 c34 -85 42 -109 37 -114 -15 -15 -218 -55 -305 -60 -116
-8 -193 4 -279 42 -96 42 -125 19 -86 -69 l20 -44 -67 -7 c-138 -12 -322 -50
-410 -83 l-44 -17 41 -17 c65 -28 156 -42 237 -37 41 3 75 3 75 1 0 -9 -128
-61 -179 -73 -74 -17 -275 -8 -368 18 -40 11 -73 19 -73 17 0 -1 35 -23 78
-48 42 -24 88 -57 101 -71 24 -25 24 -27 7 -44 -15 -15 -37 -17 -168 -15
l-150 1 43 -29 c120 -81 242 -138 347 -160 l57 -12 -35 -9 c-19 -5 -89 -9
-155 -10 -172 -2 -309 31 -494 118 -101 47 -121 52 -121 29 0 -25 102 -96 296
-205 171 -96 184 -105 158 -112 -155 -41 -731 -60 -806 -26 -21 9 -38 15 -38
12 0 -12 114 -155 146 -183 52 -47 118 -76 233 -105 73 -18 130 -26 191 -26
96 0 100 -3 100 -62 0 -40 -53 -93 -108 -107 -36 -10 -522 -51 -606 -51 -17 0
-26 -4 -20 -8 5 -5 143 -60 306 -123 183 -69 293 -116 285 -121 -27 -18 -383
-128 -490 -152 -262 -59 -447 -78 -762 -80 -200 -1 -235 -4 -270 -20 -34 -15
-56 -17 -155 -11 -63 3 -198 17 -300 30 -200 25 -241 23 -327 -15 -25 -11 -51
-20 -59 -20 -7 0 -93 36 -191 81 -233 106 -379 166 -436 179 -82 18 -429 -21
-672 -75 -267 -60 -547 -174 -705 -287 -36 -26 -105 -83 -153 -128 -220 -203
-448 -331 -764 -430 l-102 -32 -35 22 -36 22 0 -30 c0 -33 -7 -37 -103 -48
-31 -4 -57 -11 -57 -16 0 -11 89 -68 107 -68 24 0 13 -18 -28 -48 -34 -25 -37
-31 -22 -36 10 -2 43 -12 74 -21 l55 -15 23 -70 c12 -39 24 -70 26 -70 2 0 23
27 45 60 l41 60 74 0 c41 0 75 3 75 6 0 3 -12 21 -27 41 l-28 36 40 -7 c69
-13 205 -97 205 -127 0 -12 -118 -47 -220 -65 -48 -9 -196 -19 -345 -24 -249
-9 -390 -18 -381 -27 2 -2 97 -26 212 -54 254 -61 244 -58 244 -71 0 -7 -18
-9 -51 -5 -28 4 -49 3 -47 -1 2 -4 12 -24 23 -44 18 -36 18 -40 1 -74 -9 -20
-15 -38 -14 -40 2 -2 23 2 46 8 37 9 45 8 63 -8 25 -23 14 -30 -67 -42 -76
-12 -172 1 -235 33 -27 13 -49 22 -49 20 0 -2 35 -32 77 -68 162 -134 291
-206 384 -214 97 -9 256 30 464 113 60 24 112 44 116 44 8 0 -7 -82 -27 -145
-45 -137 -116 -245 -186 -281 -24 -13 -182 -32 -553 -69 l-70 -7 70 -35 c113
-57 262 -113 382 -144 272 -69 470 -41 611 86 72 65 198 223 297 374 74 113
93 151 176 368 l94 242 5 -142 c5 -141 5 -142 17 -87 37 163 46 210 74 375 34
205 54 273 116 400 93 187 239 368 365 453 l47 32 393 -21 c216 -12 394 -22
396 -24 2 -1 -22 -36 -53 -76 -129 -172 -205 -384 -205 -576 0 -102 15 -160
69 -266 93 -183 231 -366 415 -550 109 -109 111 -110 261 -182 161 -77 277
-145 299 -176 15 -23 16 -19 -25 -356 -16 -133 -32 -281 -35 -328 l-7 -86 34
-36 c47 -49 289 -229 569 -423 310 -216 337 -236 345 -261 9 -26 5 -29 -42
-39 -37 -9 -39 -8 -104 56 l-66 66 -7 -44 c-3 -23 -8 -66 -12 -94 -6 -51 -7
-52 -63 -78 -31 -15 -67 -35 -79 -45 -22 -16 -22 -17 61 -54 l84 -38 13 -90
c7 -49 14 -89 16 -89 1 0 30 29 65 65 63 66 99 82 99 45 0 -35 32 -41 214 -38
l174 3 -80 179 c-74 167 -78 179 -61 192 24 18 29 17 102 -7 34 -12 64 -19 67
-16 3 2 -7 35 -21 72 l-25 67 45 64 c25 34 45 64 45 66 0 2 -35 2 -78 0 l-78
-3 -26 38 c-14 21 -25 40 -24 43 0 3 -20 34 -46 70 l-46 65 24 64 c13 35 22
66 20 68 -2 3 -34 -5 -70 -16 l-67 -21 -57 45 -57 45 -5 -76 c-5 -68 -8 -77
-31 -91 l-26 -16 -242 218 c-141 127 -241 223 -239 232 3 12 72 15 490 16 362
2 490 -1 499 -10 6 -6 18 -62 26 -125 37 -287 90 -348 277 -318 70 11 239 68
234 79 -2 3 -35 49 -73 101 -39 52 -106 144 -149 203 -90 124 -173 218 -219
246 -18 10 -189 64 -382 120 -192 56 -371 109 -396 117 l-47 15 48 92 c72 137
101 244 107 402 4 97 1 149 -11 204 -9 41 -14 76 -12 79 3 2 76 -12 163 -32
192 -43 410 -86 434 -86 10 0 28 -14 40 -31 l22 -31 -22 -45 c-19 -40 -20 -44
-4 -39 67 20 74 19 114 -13 l39 -32 0 45 c0 43 3 47 42 72 l42 27 148 -13 c86
-8 196 -10 263 -7 l116 6 19 -31 c15 -25 106 -76 527 -293 283 -147 526 -279
548 -298 33 -29 38 -38 29 -53 -18 -30 -99 -51 -334 -84 -329 -46 -464 -83
-526 -145 -15 -15 -30 -23 -33 -18 -4 4 -72 83 -150 175 l-143 168 -30 -18
c-80 -46 -187 -177 -188 -229 0 -7 14 -28 30 -47 31 -35 65 -51 293 -135 59
-22 134 -58 167 -79 l58 -39 174 29 c171 28 408 96 668 191 254 92 412 197
435 288 6 24 -16 40 -449 320 -250 162 -451 295 -447 297 4 1 314 -36 688 -83
720 -90 774 -100 938 -171 105 -47 234 -124 370 -223 61 -44 155 -103 211
-131 123 -62 266 -168 316 -234 45 -61 62 -126 53 -204 -12 -103 11 -112 290
-123 142 -5 226 -12 260 -23 48 -15 44 -10 -264 298 l-313 313 -522 365 -521
365 -530 67 c-291 37 -539 69 -551 71 -17 4 -24 20 -39 85 l-19 81 28 57 c57
116 96 292 96 435 l0 68 87 132 c109 165 196 334 229 446 41 142 74 227 157
416 43 99 90 209 105 245 14 36 26 67 28 68 1 2 23 -10 47 -27 24 -16 46 -29
48 -26 2 2 26 -2 53 -9 40 -10 65 -10 130 0 109 18 171 17 367 -5 141 -16 185
-26 285 -61 208 -73 235 -74 261 -12 20 46 22 171 3 227 -16 50 -32 69 -95
110 -28 17 -136 118 -240 224 -144 145 -217 210 -300 268 -60 42 -112 78 -114
80 -3 2 5 13 17 26 12 13 22 30 22 38 0 23 -165 209 -213 241 -50 33 -121 62
-326 134 -165 57 -241 90 -241 105 0 5 -4 9 -10 9 -5 0 0 -24 11 -52z m344
-1273 c39 -32 28 -32 -15 0 -19 14 -30 25 -24 25 5 0 23 -11 39 -25z m-7326
-2080 c46 -8 86 -16 88 -19 12 -12 -185 -116 -220 -116 -9 0 -12 9 -9 28 2 20
15 34 45 51 l41 24 -45 17 c-54 22 -69 54 -17 39 18 -5 71 -16 117 -24z m6116
-192 c37 -33 31 -31 -32 8 -22 13 -31 29 -15 29 4 -1 25 -17 47 -37z m-1589
-1667 c1 -1 -6 -26 -15 -56 -13 -43 -22 -56 -39 -58 -12 -2 -22 1 -22 6 0 5
-11 25 -24 45 -22 32 -23 37 -10 56 13 18 22 20 62 14 26 -3 48 -6 48 -7z"/>
<path d="M2279 6529 c-20 -29 -25 -31 -70 -27 -27 3 -49 3 -49 1 0 -2 11 -20
24 -41 l24 -38 -20 -38 c-11 -21 -17 -40 -15 -43 3 -2 24 1 47 7 41 11 44 10
76 -21 l33 -32 6 39 c10 59 11 62 52 83 l38 19 -46 20 c-42 18 -48 24 -54 61
-4 23 -11 41 -15 41 -5 0 -19 -14 -31 -31z"/>
<path d="M1017 6495 c-27 -32 -31 -34 -74 -28 l-46 6 23 -40 c23 -42 23 -47
-5 -114 -5 -15 -1 -15 39 -6 42 9 47 8 78 -18 l33 -28 10 47 c8 38 17 50 48
69 l39 24 -46 17 c-42 16 -45 20 -52 62 -3 24 -9 44 -13 43 -3 0 -19 -16 -34
-34z"/>
<path d="M4256 6445 c-28 -36 -30 -37 -78 -32 l-48 6 24 -42 25 -42 -19 -43
c-18 -40 -18 -43 -2 -38 66 18 77 17 107 -14 16 -16 32 -30 36 -30 4 0 9 21
11 48 3 43 6 49 40 67 21 11 38 23 38 26 0 3 -18 12 -40 19 -35 11 -41 19 -51
54 -5 23 -11 45 -12 50 -2 4 -16 -8 -31 -29z"/>
<path d="M5999 6117 c-24 -29 -31 -32 -74 -29 l-47 4 25 -39 25 -40 -18 -41
c-21 -46 -18 -49 40 -32 31 9 37 7 66 -21 l31 -30 7 23 c3 13 6 33 6 45 0 15
13 30 41 46 l41 25 -45 17 c-42 16 -45 20 -52 61 -3 24 -9 44 -13 43 -4 0 -19
-15 -33 -32z"/>
<path d="M7088 5775 c-26 -30 -31 -32 -74 -27 l-46 5 27 -41 26 -40 -21 -41
c-22 -45 -22 -46 34 -30 36 10 40 9 71 -21 l33 -32 7 50 c6 43 10 51 41 66 40
19 38 30 -11 46 -30 10 -35 16 -41 56 -3 24 -9 44 -13 43 -3 0 -18 -15 -33
-34z"/>
<path d="M434 5370 c-29 -29 -33 -30 -74 -21 -25 5 -46 8 -48 6 -2 -2 6 -21
18 -44 l20 -41 -20 -41 c-12 -23 -20 -42 -18 -44 2 -2 22 0 45 4 39 8 44 6 75
-26 29 -30 33 -31 40 -16 3 10 7 31 7 46 1 23 9 31 46 48 25 11 45 22 45 24 0
3 -17 13 -39 24 -42 22 -51 37 -51 82 0 37 -8 36 -46 -1z"/>
<path d="M2045 4749 c-28 -28 -66 -63 -85 -79 l-36 -28 -107 23 c-59 12 -107
21 -107 18 0 -3 20 -48 45 -101 25 -52 45 -98 45 -102 0 -4 -25 -51 -55 -104
-30 -53 -53 -96 -51 -96 1 0 52 7 112 16 l109 15 76 -80 c41 -45 78 -81 81
-81 3 0 13 47 23 105 10 58 23 109 29 114 6 4 49 25 96 46 47 21 88 41 93 44
4 4 -37 31 -92 59 l-99 52 -12 115 c-7 63 -13 115 -14 115 -1 0 -24 -23 -51
-51z"/>
<path d="M1218 4109 l-35 -76 -83 -13 -83 -13 62 -56 63 -56 -11 -65 c-18
-106 -20 -104 58 -59 l70 40 70 -36 c39 -19 72 -35 74 -35 2 0 -3 36 -11 81
l-15 81 58 58 57 58 -74 7 c-42 4 -80 10 -85 14 -6 3 -26 37 -45 76 l-35 69
-35 -75z"/>
<path d="M7520 3770 c-17 -23 -29 -30 -56 -30 -36 0 -43 -14 -24 -50 8 -14 6
-30 -5 -56 -8 -21 -14 -39 -12 -40 2 -2 20 1 41 7 36 10 40 9 72 -22 l34 -33
0 40 c0 48 6 56 50 79 l35 18 -39 18 c-45 19 -56 34 -56 72 0 35 -13 34 -40
-3z"/>
<path d="M2250 3228 c-12 -35 -26 -68 -31 -74 -5 -6 -36 -17 -69 -24 -34 -7
-63 -16 -65 -21 -3 -4 20 -27 51 -51 l56 -43 -4 -78 -5 -77 26 17 c14 9 42 27
61 40 19 12 40 23 46 23 24 0 115 -43 107 -51 -5 -5 -37 -4 -72 2 -35 5 -65 8
-68 6 -2 -2 12 -31 30 -64 l34 -60 -28 -54 c-15 -30 -28 -59 -29 -65 0 -8 20
-7 66 4 l66 15 53 -53 53 -53 7 49 c13 100 12 98 75 130 33 16 60 32 60 35 0
3 -28 19 -62 35 -60 28 -63 31 -71 74 -4 25 -10 56 -13 69 l-5 24 -34 -33
c-19 -19 -36 -32 -38 -29 -2 2 -10 29 -18 60 l-16 56 49 59 48 59 -75 3 -76 3
-40 61 c-22 34 -41 63 -43 65 -2 2 -13 -25 -26 -59z"/>
<path d="M5065 3117 l-30 -72 -75 -14 c-41 -8 -76 -16 -78 -17 -3 -2 71 -73
103 -98 10 -9 11 -27 4 -85 -5 -40 -8 -76 -6 -78 3 -2 32 12 65 32 33 19 65
35 71 35 6 0 41 -13 78 -30 36 -16 67 -30 68 -30 2 0 -6 34 -16 76 l-20 75 40
48 c22 26 48 54 57 62 15 12 7 15 -66 24 l-84 10 -36 67 c-19 37 -37 68 -40
68 -3 0 -18 -33 -35 -73z"/>
<path d="M143 3148 c-32 -31 -34 -32 -75 -21 -24 6 -44 10 -46 9 -1 -2 4 -22
13 -44 16 -39 16 -41 -10 -82 l-27 -43 48 8 c46 7 48 6 79 -31 l32 -38 11 46
c10 41 17 48 54 63 41 16 42 18 23 31 -54 36 -59 43 -64 88 l-6 47 -32 -33z"/>
<path d="M4590 2828 c0 -7 -11 -48 -25 -93 l-24 -81 -91 -29 c-49 -16 -90 -31
-90 -35 0 -3 34 -29 75 -58 l75 -52 0 -100 c0 -55 3 -100 6 -100 3 0 39 27 81
59 l75 59 90 -30 c49 -17 91 -28 94 -26 2 3 -9 44 -26 93 -16 48 -26 93 -22
99 4 7 28 42 55 78 26 36 47 69 47 73 0 4 -43 5 -95 1 l-94 -6 -58 80 c-56 77
-73 93 -73 68z"/>
<path d="M3018 2763 l-25 -68 -72 -21 -71 -20 60 -45 59 -44 -6 -50 c-3 -27
-11 -53 -16 -57 -7 -4 4 -28 27 -63 l37 -57 -25 -64 c-14 -35 -26 -66 -26 -68
0 -2 31 5 69 17 l70 20 55 -48 56 -47 0 71 0 72 60 37 c33 20 60 40 60 43 0 3
-25 13 -55 23 -53 16 -85 38 -85 56 0 5 6 7 14 4 11 -4 10 9 -6 65 l-21 70 42
52 c43 55 49 67 29 66 -7 0 -39 1 -71 1 l-58 2 -38 61 -38 60 -25 -68z m85
-270 c14 -13 -26 -43 -57 -43 l-31 1 30 24 c31 25 46 30 58 18z"/>
<path d="M3918 2616 l-37 -74 -80 -7 c-45 -4 -81 -10 -81 -13 0 -4 25 -32 56
-63 l57 -57 -15 -81 c-8 -45 -13 -81 -10 -81 2 0 36 17 75 37 l70 37 70 -37
c38 -21 71 -36 74 -34 2 2 -2 38 -9 81 l-12 77 58 58 c65 66 67 63 -45 76
l-56 7 -34 70 c-18 38 -36 71 -39 73 -4 2 -23 -29 -42 -69z"/>
<path d="M6001 2540 l-42 -60 -81 0 -80 0 24 -32 c13 -18 35 -48 48 -66 l24
-32 -22 -68 c-12 -38 -22 -71 -22 -74 0 -2 33 7 73 21 l74 25 61 -48 62 -47 0
79 0 80 62 46 c39 29 56 47 47 51 -8 2 -41 13 -74 23 l-60 17 -22 69 c-13 38
-24 71 -26 73 -2 2 -23 -24 -46 -57z"/>
<path d="M8616 2518 c3 -18 7 -38 9 -44 2 -7 -12 -27 -31 -45 -41 -40 -42 -49
-6 -50 45 -1 64 -13 86 -57 l21 -42 25 45 c19 35 30 45 50 45 14 0 35 3 48 6
23 7 23 7 -12 43 -33 34 -35 38 -26 76 5 22 10 43 10 47 0 4 -19 -2 -43 -13
l-43 -21 -42 21 c-23 11 -44 21 -46 21 -3 0 -3 -15 0 -32z"/>
<path d="M1886 2408 l-38 -31 -51 16 c-28 9 -52 15 -54 14 -1 -2 5 -26 14 -55
l17 -52 -33 -45 -32 -45 60 0 c58 0 60 -1 88 -40 15 -22 31 -40 34 -40 4 0 10
17 14 37 10 57 20 69 70 83 25 7 45 16 45 20 0 4 -18 19 -40 34 -37 24 -40 30
-41 74 -1 26 -1 50 0 55 2 14 -15 6 -53 -25z"/>
<path d="M5395 2307 c-50 -90 -59 -96 -130 -97 -22 -1 -57 -4 -78 -8 l-38 -7
66 -72 66 -72 -22 -91 c-11 -50 -19 -93 -17 -95 2 -2 43 14 91 36 l87 39 81
-50 c45 -28 83 -49 85 -47 2 2 -2 45 -8 97 l-12 93 74 67 74 67 -52 12 c-28 6
-70 14 -92 17 -47 8 -44 4 -91 112 l-36 84 -48 -85z"/>
<path d="M6752 2305 l-54 -59 -76 11 c-43 6 -78 10 -80 8 -2 -1 13 -30 33 -63
19 -33 35 -65 35 -71 0 -7 -14 -39 -31 -73 -23 -45 -27 -63 -19 -68 9 -6 3
-23 -21 -64 l-34 -55 -72 -1 c-40 0 -73 -4 -73 -9 0 -5 20 -33 45 -63 l44 -54
-20 -68 c-11 -37 -19 -70 -17 -72 3 -2 34 8 71 23 l66 26 65 -41 65 -41 -5 77
-6 77 56 43 c31 24 54 47 51 51 -2 5 -31 14 -65 21 -33 7 -64 18 -68 24 -16
21 -52 118 -47 126 3 5 28 11 56 15 l51 7 52 -51 c28 -28 55 -51 58 -51 4 0
10 31 14 69 3 38 9 73 13 79 3 5 34 24 69 41 34 17 60 35 58 40 -3 5 -34 21
-69 35 l-63 27 -14 81 -15 82 -53 -59z"/>
<path d="M9754 2322 l-40 -29 -47 17 c-26 10 -47 15 -47 10 0 -4 7 -27 15 -50
15 -42 15 -43 -15 -80 -17 -21 -30 -39 -30 -41 0 -2 22 -2 48 -1 48 4 49 3 79
-43 l31 -47 17 51 c16 48 19 52 61 62 24 6 44 15 44 19 0 4 -16 18 -35 31 -31
22 -34 29 -37 77 l-3 54 -41 -30z"/>
<path d="M1648 2285 c-43 -29 -53 -30 -101 -10 -20 8 -38 15 -41 15 -2 0 3
-22 11 -50 l14 -50 -31 -37 -31 -38 53 -8 c48 -8 56 -12 77 -49 25 -45 29 -44
51 15 12 34 21 42 50 49 67 17 67 17 25 52 -37 32 -39 36 -36 85 1 28 1 51 -1
51 -2 0 -20 -11 -40 -25z"/>
<path d="M4655 2240 l-70 -70 -98 21 c-54 12 -100 19 -103 16 -2 -2 14 -42 36
-88 22 -45 40 -88 40 -95 0 -7 -22 -51 -50 -98 -56 -99 -62 -94 77 -72 l83 12
33 -36 c18 -19 43 -47 56 -62 l24 -27 -54 -24 c-45 -21 -57 -23 -74 -12 -11 7
-47 29 -79 50 l-59 37 7 -93 6 -94 -43 -33 c-23 -18 -55 -43 -71 -56 l-28 -23
73 -18 c41 -9 82 -19 91 -21 10 -3 29 -37 49 -89 17 -47 33 -85 34 -85 2 0 24
36 50 80 l47 80 81 1 c45 1 85 1 90 0 16 -2 5 14 -49 76 l-57 64 19 82 c10 45
18 89 16 97 -1 8 3 47 9 86 l11 72 87 38 c47 20 90 41 95 45 4 4 -32 29 -82
56 l-91 48 -5 45 c-3 25 -8 71 -12 103 -3 31 -9 57 -13 57 -3 0 -38 -31 -76
-70z"/>
<path d="M2480 2095 c-30 -43 -32 -44 -91 -47 l-61 -3 36 -47 36 -46 -20 -57
-19 -56 22 7 c12 4 38 12 57 19 32 11 37 10 82 -23 l48 -34 0 59 c0 59 0 60
45 92 25 18 45 34 45 36 0 3 -24 11 -53 20 -52 15 -54 17 -71 70 -9 30 -19 55
-21 55 -2 0 -18 -20 -35 -45z"/>
<path d="M3993 2052 l7 -92 -76 -56 -75 -57 -33 32 -33 32 -6 -38 c-4 -21 -7
-56 -7 -78 0 -51 -5 -57 -65 -88 -96 -49 -96 -49 -11 -86 81 -36 80 -33 97
-134 l11 -69 62 66 61 65 73 -11 c41 -5 76 -8 79 -5 3 3 -13 36 -35 73 -39 67
-39 68 -24 106 8 21 18 38 21 38 3 0 15 -30 26 -67 l20 -67 50 77 50 77 85 1
c47 1 88 1 93 0 15 -2 5 16 -47 83 l-53 68 28 90 c23 77 25 89 11 83 -9 -4
-49 -18 -89 -32 l-71 -26 -64 45 c-100 71 -92 73 -85 -30z m-60 -228 c38 -9
34 -24 -6 -24 -22 0 -41 8 -53 22 -19 21 -19 21 6 14 14 -3 37 -9 53 -12z"/>
<path d="M8279 2039 c-28 -60 -42 -69 -108 -69 -28 0 -51 -4 -51 -8 0 -4 20
-27 44 -51 l43 -42 -13 -57 c-8 -31 -14 -60 -14 -64 0 -4 27 4 60 18 l59 26
56 -31 55 -31 -6 68 -6 68 47 39 c53 43 52 46 -37 59 -45 7 -47 9 -68 62 -12
30 -26 56 -30 59 -4 2 -18 -18 -31 -46z"/>
<path d="M12690 1959 c-36 -22 -35 -22 -104 6 -19 8 -19 -1 0 -67 3 -9 -8 -31
-26 -51 l-30 -35 48 -7 c42 -5 51 -11 67 -41 10 -19 21 -34 25 -34 4 0 14 18
22 39 13 33 22 41 52 46 48 10 52 19 17 48 -24 20 -30 34 -33 71 l-3 46 -35
-21z"/>
<path d="M12074 1922 c6 -48 5 -50 -29 -73 -19 -13 -35 -27 -35 -30 0 -4 20
-12 45 -18 40 -10 45 -15 56 -51 7 -22 15 -40 18 -40 3 0 16 15 28 34 12 19
32 35 47 38 24 5 26 2 26 -28 0 -28 -6 -37 -41 -57 -44 -26 -43 -28 13 -46 34
-11 38 -16 44 -57 3 -24 9 -44 13 -44 3 0 18 15 33 34 25 32 30 33 74 28 l47
-5 -24 42 c-24 43 -24 42 6 113 6 15 3 16 -30 7 -54 -15 -77 -5 -115 47 -31
44 -33 49 -22 88 6 22 9 42 8 43 -1 2 -21 -5 -44 -14 -41 -16 -42 -16 -83 12
l-42 27 7 -50z"/>
<path d="M9869 1898 c-22 -47 -39 -58 -90 -58 -41 0 -42 -11 -3 -51 37 -37 37
-38 27 -88 -6 -28 -9 -51 -7 -51 2 0 24 10 49 22 l45 22 46 -22 c26 -13 48
-21 51 -19 2 2 -1 26 -7 53 l-11 49 39 37 c42 39 39 48 -17 48 -35 0 -54 16
-79 65 l-20 40 -23 -47z"/>
<path d="M10562 1823 c3 -44 2 -48 -34 -72 -20 -14 -37 -29 -38 -33 0 -3 19
-13 43 -20 38 -13 44 -19 58 -63 l15 -49 30 42 c26 37 34 41 77 44 l47 3 -26
37 c-26 36 -26 38 -11 82 l16 46 -27 -6 c-15 -4 -37 -10 -48 -15 -16 -6 -30 0
-55 21 -19 16 -38 29 -43 30 -4 0 -6 -21 -4 -47z"/>
<path d="M10973 1806 c6 -44 5 -48 -30 -80 l-37 -33 48 -7 c43 -7 49 -11 69
-52 l21 -45 23 46 c23 43 25 45 68 45 25 0 45 3 45 7 0 4 -14 21 -31 39 -30
31 -31 34 -21 78 5 25 8 46 6 46 -1 0 -19 -10 -39 -22 l-37 -21 -45 22 -46 22
6 -45z"/>
<path d="M8784 1750 c-28 -38 -31 -40 -86 -40 l-58 0 27 -48 27 -49 -22 -52
c-16 -40 -18 -52 -7 -48 7 3 32 11 55 17 39 10 42 9 85 -26 l45 -36 0 30 c0
67 10 88 56 112 24 14 44 27 44 30 0 3 -22 13 -50 23 -43 15 -51 22 -60 55 -5
20 -10 45 -10 55 0 27 -14 20 -46 -23z"/>
<path d="M11635 1745 c-6 -38 -13 -47 -47 -68 l-40 -23 46 -18 c40 -15 46 -22
52 -54 10 -55 14 -57 46 -17 29 34 32 36 74 29 24 -3 44 -4 44 -1 0 3 -9 22
-21 41 -21 36 -21 42 6 107 5 15 1 15 -40 6 -42 -10 -47 -9 -73 16 -16 15 -31
27 -34 27 -4 0 -10 -20 -13 -45z"/>
<path d="M9838 1589 l-38 -31 -47 16 c-25 9 -50 16 -54 16 -4 0 0 -24 10 -52
l18 -53 -34 -47 -35 -48 61 0 c60 0 60 0 92 -45 l33 -46 14 48 c18 62 24 68
77 83 25 7 45 15 45 19 0 3 -20 19 -45 34 -44 28 -45 30 -45 83 0 30 -3 54 -7
54 -5 -1 -25 -14 -45 -31z"/>
<path d="M12158 1560 c-12 -38 -19 -45 -59 -56 -24 -8 -65 -14 -90 -14 -45 0
-48 2 -72 43 l-26 42 -17 -43 c-15 -37 -23 -44 -61 -53 -23 -6 -43 -13 -43
-16 0 -2 14 -16 30 -30 26 -21 30 -32 30 -74 l0 -49 38 25 c37 25 40 25 76 10
21 -9 40 -14 43 -12 2 3 0 22 -6 43 -9 34 -8 40 17 70 15 18 31 33 36 33 5 1
25 -11 44 -25 32 -25 34 -30 29 -70 -2 -24 -3 -44 0 -44 2 0 20 12 38 26 34
26 35 26 81 10 43 -14 46 -14 39 2 -19 49 -17 78 9 109 14 17 26 34 26 37 0 3
-22 6 -50 6 -27 0 -50 3 -50 8 0 4 -11 20 -24 36 l-23 30 -15 -44z"/>
<path d="M7241 1523 l-53 -66 -91 7 -90 7 18 -28 c10 -15 33 -50 50 -76 l33
-48 -34 -81 c-19 -44 -33 -82 -31 -84 1 -2 40 8 86 21 l84 25 64 -56 c35 -31
66 -54 68 -52 3 2 8 42 12 88 l8 85 70 42 c39 24 69 46 68 50 -1 4 -32 18 -70
32 -37 14 -73 29 -80 34 -6 4 -19 43 -29 87 -9 44 -20 80 -23 80 -3 0 -30 -30
-60 -67z"/>
<path d="M11366 1539 c-2 -8 -8 -27 -13 -43 -10 -31 -20 -39 -67 -56 l-29 -11
35 -24 c26 -18 37 -34 43 -61 3 -21 2 -40 -3 -43 -5 -3 -18 -24 -28 -46 -17
-34 -25 -41 -64 -48 l-45 -9 37 -32 c34 -30 36 -34 31 -80 l-6 -48 40 26 40
27 44 -19 45 -20 -10 49 c-9 46 -8 50 17 77 15 15 27 31 27 35 0 4 -20 7 -43
7 -38 0 -46 4 -57 28 -19 37 -19 36 17 66 30 25 35 26 74 16 22 -6 43 -9 45
-7 2 2 -3 21 -11 42 -16 36 -15 38 10 76 l25 39 -48 0 c-45 0 -51 3 -75 37
-18 25 -28 32 -31 22z"/>
<path d="M5378 1201 c-18 -59 -18 -59 -68 -71 -27 -7 -52 -16 -55 -20 -3 -5
15 -23 40 -40 l45 -31 0 -65 0 -66 51 38 51 37 55 -17 c30 -10 57 -16 59 -13
2 2 -4 28 -15 58 l-18 54 33 44 c19 24 34 47 34 51 0 5 -26 6 -58 3 l-57 -5
-35 51 c-19 28 -37 51 -40 51 -3 0 -13 -27 -22 -59z"/>
<path d="M1749 1183 c-16 -53 -25 -60 -70 -68 -21 -4 -39 -10 -39 -15 0 -4 16
-18 35 -31 32 -22 35 -28 35 -77 l0 -53 43 30 c40 27 44 28 76 15 57 -24 62
-20 44 31 l-15 45 32 40 32 40 -51 0 c-48 0 -52 2 -77 40 -15 22 -28 40 -30
40 -1 0 -8 -17 -15 -37z"/>
<path d="M8426 1148 c-3 -7 -10 -33 -18 -58 -12 -41 -17 -46 -65 -64 -29 -10
-53 -21 -53 -25 0 -3 23 -19 50 -36 l50 -29 0 -58 c0 -59 8 -70 30 -43 7 9 26
25 41 36 27 19 31 19 80 5 29 -9 54 -14 56 -12 2 2 -5 27 -17 55 l-20 52 30
44 c16 24 30 47 30 52 0 4 -26 7 -58 5 l-57 -4 -34 46 c-38 50 -40 52 -45 34z"/>
<path d="M6247 1140 c-3 -8 -9 -32 -14 -54 -7 -33 -14 -41 -50 -55 -23 -9 -44
-19 -48 -23 -4 -3 14 -18 39 -33 39 -23 46 -32 46 -58 0 -18 3 -42 6 -55 7
-23 7 -23 45 14 37 36 38 37 83 25 65 -16 66 -16 44 38 l-21 49 27 47 28 47
-55 -4 c-54 -3 -57 -2 -90 37 -26 29 -37 36 -40 25z"/>
<path d="M9612 1045 c-42 -33 -42 -33 -89 -19 -25 8 -48 12 -51 10 -2 -3 3
-26 12 -52 l16 -47 -31 -41 -30 -41 55 -3 c52 -3 57 -6 83 -42 15 -22 31 -40
35 -40 3 0 11 22 18 49 11 49 13 50 68 69 l55 18 -46 29 c-45 29 -46 31 -49
86 l-3 56 -43 -32z"/>
<path d="M9187 999 c-27 -37 -31 -39 -83 -39 -30 0 -54 -3 -54 -7 0 -3 11 -21
25 -39 29 -38 30 -52 10 -101 -8 -20 -14 -38 -12 -40 2 -1 25 3 52 11 l48 15
43 -36 44 -35 0 56 c0 56 0 57 46 86 l47 29 -27 11 c-15 5 -38 13 -51 16 -23
6 -45 50 -45 91 0 26 -16 19 -43 -18z"/>
<path d="M10231 883 c-30 -24 -37 -25 -70 -16 -20 6 -44 13 -53 17 -16 7 -16
4 -1 -42 l16 -50 -32 -41 -33 -41 51 0 c48 0 52 -2 77 -40 15 -22 30 -40 34
-40 4 0 13 20 20 45 11 39 17 46 49 55 20 5 42 10 49 10 22 0 12 14 -29 43
-40 27 -41 30 -37 78 1 27 1 49 -2 49 -3 0 -20 -12 -39 -27z"/>
<path d="M7497 787 l-18 -72 -72 -26 -72 -26 62 -39 61 -39 7 -77 7 -78 55 47
55 47 66 -17 c37 -9 70 -17 74 -17 4 0 -4 27 -18 60 -13 33 -24 64 -24 70 0 6
19 39 41 72 l42 61 -76 -6 -76 -7 -47 60 c-26 33 -48 60 -49 60 -1 0 -9 -33
-18 -73z"/>
<path d="M4693 382 c6 -51 6 -51 -35 -81 l-40 -30 48 -14 c44 -12 51 -18 64
-55 8 -23 17 -42 20 -42 3 0 15 16 27 35 19 29 30 35 72 41 l50 6 -30 37 c-29
37 -29 38 -15 85 10 33 11 46 3 42 -66 -27 -88 -29 -115 -10 -56 41 -56 42
-49 -14z"/>
<path d="M5738 396 c-25 -31 -30 -33 -72 -29 -51 6 -55 0 -26 -37 24 -30 25
-52 4 -91 -8 -17 -13 -33 -11 -36 3 -2 24 1 46 7 40 10 44 9 81 -20 l40 -32 0
46 c0 42 3 48 40 72 22 15 40 28 40 30 0 2 -20 12 -44 22 -38 17 -44 24 -50
61 -3 22 -10 41 -14 41 -4 0 -19 -15 -34 -34z"/>
<path d="M2652 227 c-11 -40 -15 -44 -59 -58 l-48 -15 43 -28 c39 -26 42 -32
42 -72 0 -24 3 -44 6 -44 3 0 20 11 38 25 32 24 34 25 80 11 44 -13 47 -13 41
2 -28 68 -28 72 -1 112 l26 40 -49 0 c-44 0 -50 3 -72 35 -13 19 -27 35 -30
35 -4 0 -12 -19 -17 -43z"/>
</g>
</svg>
